<?xml version="1.0" encoding="UTF-8" standalone="no"?>
<svg
   viewBox="0 0 292 304.72936"
   version="1.1"
   id="svg1186"
   sodipodi:docname="logo_vertical_bg_white.svg"
   inkscape:version="1.2.2 (b0a8486541, 2022-12-01)"
   width="292"
   height="304.72937"
   xmlns:inkscape="http://www.inkscape.org/namespaces/inkscape"
   xmlns:sodipodi="http://sodipodi.sourceforge.net/DTD/sodipodi-0.dtd"
   xmlns="http://www.w3.org/2000/svg"
   xmlns:svg="http://www.w3.org/2000/svg">
  <sodipodi:namedview
     id="namedview1188"
     pagecolor="#ffffff"
     bordercolor="#666666"
     borderopacity="1.0"
     inkscape:pageshadow="2"
     inkscape:pageopacity="0.0"
     inkscape:pagecheckerboard="true"
     showgrid="false"
     inkscape:zoom="2.8649157"
     inkscape:cx="145.90307"
     inkscape:cy="152.88408"
     inkscape:window-width="1268"
     inkscape:window-height="1355"
     inkscape:window-x="1284"
     inkscape:window-y="40"
     inkscape:window-maximized="0"
     inkscape:current-layer="Layer_1-2"
     inkscape:showpageshadow="2"
     inkscape:deskcolor="#d1d1d1" />
  <defs
     id="defs1132">
    <style
       id="style1130">.cls-1{fill:#fff;}.cls-2{fill:#44cfcb;}</style>
  </defs>
  <g
     id="Layer_2"
     data-name="Layer 2"
     transform="translate(0,3.9053395e-4)">
    <g
       id="Layer_1-2"
       data-name="Layer 1">
      <path
         class="cls-1"
         d="m 11.3487,302.2651 v 2.1092 H 0 v -11.0187 h 11.1916 v 2.1092 h -8.689 v 2.267 h 7.2556 v 2.1092 H 2.5026 v 2.4241 z"
         id="path1134"
         style="fill:#003b63;fill-opacity:1" />
      <path
         class="cls-1"
         d="m 28.1838,293.3556 v 11.0187 H 25.98 L 18.078,296.41 v 7.9648 h -2.4391 v -11.0192 h 2.6747 l 7.4294,7.5555 v -7.5555 z"
         id="path1136"
         style="fill:#003b63;fill-opacity:1" />
      <path
         class="cls-1"
         d="m 44.4842,302.2651 v 2.1092 H 33.1356 v -11.0187 h 11.1916 v 2.1092 h -8.689 v 2.267 h 7.2556 v 2.1092 h -7.2556 v 2.4241 z"
         id="path1138"
         style="fill:#003b63;fill-opacity:1" />
      <path
         class="cls-1"
         d="m 58.4224,304.3743 -3.1642,-3.7464 h -3.9811 v 3.7464 h -2.5026 v -11.0187 h 7.6014 c 2.6931,0 4.7229,1.2438 4.7229,3.6361 a 3.5024,3.5024 0 0 1 -3.069,3.4633 l 3.4,3.9193 z M 56.2356,298.55 c 1.3214,0 2.2971,-0.3149 2.2971,-1.5428 0,-1.2279 -0.9757,-1.5428 -2.2971,-1.5428 H 51.26 v 3.0856 z"
         id="path1140"
         style="fill:#003b63;fill-opacity:1" />
      <path
         class="cls-1"
         d="m 78.0959,302.139 c -1.1009,1.4952 -3.2727,2.582 -6.2649,2.582 -4.4222,0 -7.1136,-2.1727 -7.1136,-5.8557 0,-3.683 2.6914,-5.8556 7.1136,-5.8556 a 8.1192,8.1192 0 0 1 5.73,2.0934 l -1.968,1.4325 a 4.8921,4.8921 0 0 0 -3.7456,-1.3849 c -2.88,0 -4.5658,1.2588 -4.5658,3.7146 0,2.4558 1.7324,3.7147 4.6594,3.7147 a 4.7509,4.7509 0 0 0 3.794,-1.3064 v -1.0709 H 71.58 v -2.0457 h 6.5155 z"
         id="path1142"
         style="fill:#003b63;fill-opacity:1" />
      <path
         class="cls-1"
         d="m 83.4487,293.3556 3.7155,5.1631 3.6988,-5.1631 h 2.8485 l -5.3043,7.2564 v 3.7623 h -2.5194 v -3.7623 l -5.3043,-7.2564 z"
         id="path1144"
         style="fill:#003b63;fill-opacity:1" />
      <path
         class="cls-1"
         d="m 93.3222,303.2566 a 1.498,1.498 0 0 1 2.9754,0 1.5,1.5 0 0 1 -2.9754,0 z"
         id="path1146"
         style="fill:#003b63;fill-opacity:1" />
      <path
         class="cls-1"
         d="m 115.9776,295.5282 h -4.8165 v 8.8461 h -2.5193 v -8.8461 h -4.7848 v -2.1726 h 12.1206 z"
         id="path1148"
         style="fill:#003b63;fill-opacity:1" />
      <path
         class="cls-1"
         d="m 129.6568,304.3743 -3.1642,-3.7464 h -3.9811 v 3.7464 h -2.5027 v -11.0187 h 7.6012 c 2.693,0 4.7229,1.2438 4.7229,3.6361 a 3.5024,3.5024 0 0 1 -3.069,3.4633 l 3.4,3.9193 z M 127.47,298.55 c 1.3215,0 2.2972,-0.3149 2.2972,-1.5428 0,-1.2279 -0.9757,-1.5428 -2.2972,-1.5428 h -4.9752 v 3.0856 z"
         id="path1150"
         style="fill:#003b63;fill-opacity:1" />
      <path
         class="cls-1"
         d="m 146.6189,302.0446 h -6.6576 l -1.1811,2.33 h -2.6914 l 5.8389,-11.0187 h 2.7549 l 5.8406,11.0187 H 147.8 Z m -1.0542,-2.0466 -2.2821,-4.4856 -2.2838,4.4856 z"
         id="path1152"
         style="fill:#003b63;fill-opacity:1" />
      <path
         class="cls-1"
         d="m 166.9807,293.3556 v 11.0187 h -2.2036 l -7.9022,-7.9648 v 7.9648 h -2.4391 v -11.0187 h 2.6747 l 7.431,7.5555 v -7.5555 z"
         id="path1154"
         style="fill:#003b63;fill-opacity:1" />
      <path
         class="cls-1"
         d="m 183.99,301.0372 c 0,2.1727 -2.0616,3.6838 -5.9659,3.6838 a 10.1205,10.1205 0 0 1 -6.736,-2.2195 l 1.4468,-1.7157 a 7.5268,7.5268 0 0 0 5.3527,1.826 c 2.2353,0 3.368,-0.4252 3.368,-1.3382 0,-0.913 -1.1327,-1.1653 -3.667,-1.385 -3.1475,-0.2681 -6.0762,-0.9606 -6.0762,-3.3212 0,-2.2988 2.4559,-3.5577 5.8556,-3.5577 a 9.6486,9.6486 0 0 1 5.8874,1.684 l -1.385,1.7475 a 7.239,7.239 0 0 0 -4.5024,-1.3223 c -1.4952,-0.0158 -3.3212,0.2515 -3.3212,1.2589 0,0.9447 1.5737,1.0391 3.7623,1.212 3.5095,0.284 5.9809,1.0233 5.9809,3.4474 z"
         id="path1156"
         style="fill:#003b63;fill-opacity:1" />
      <path
         class="cls-1"
         d="m 190.926,295.5282 v 2.5494 h 7.2723 v 2.1724 h -7.2723 v 4.124 h -2.5176 v -11.0184 h 11.1432 v 2.1726 z"
         id="path1158"
         style="fill:#003b63;fill-opacity:1" />
      <path
         class="cls-1"
         d="m 202.9029,298.8653 c 0,-3.6837 2.7064,-5.8556 7.0033,-5.8556 4.2986,0 7.005,2.1719 7.005,5.8556 0,3.6837 -2.7064,5.8557 -7.005,5.8557 -4.2969,0 -7.0033,-2.1727 -7.0033,-5.8557 z m 11.4422,0 c 0,-2.3614 -1.7157,-3.6837 -4.4389,-3.6837 -2.7232,0 -4.4389,1.3223 -4.4389,3.6837 0,2.3614 1.7007,3.683 4.4389,3.683 2.7232,0 4.4389,-1.3223 4.4389,-3.683 z"
         id="path1160"
         style="fill:#003b63;fill-opacity:1" />
      <path
         class="cls-1"
         d="m 231.1618,304.3743 -3.1642,-3.7464 h -3.9811 v 3.7464 h -2.5027 v -11.0187 h 7.6015 c 2.6931,0 4.7229,1.2438 4.7229,3.6361 a 3.5024,3.5024 0 0 1 -3.069,3.4633 l 3.4,3.9193 z m -2.1869,-5.8239 c 1.3215,0 2.2972,-0.3149 2.2972,-1.5428 0,-1.2279 -0.9757,-1.5428 -2.2972,-1.5428 H 224 v 3.0852 z"
         id="path1162"
         style="fill:#003b63;fill-opacity:1" />
      <path
         class="cls-1"
         d="m 253.221,293.3556 v 11.0187 h -2.5193 v -7.6658 l -4.8315,5.9033 h -0.1253 l -4.8332,-5.9033 v 7.6658 h -2.4391 v -11.0187 h 2.7381 l 4.66,5.8247 4.6594,-5.8247 z"
         id="path1164"
         style="fill:#003b63;fill-opacity:1" />
      <path
         class="cls-1"
         d="m 269.8422,302.2651 v 2.1092 h -11.3486 v -11.0187 h 11.1916 v 2.1092 h -8.689 v 2.267 h 7.2556 v 2.1092 h -7.2556 v 2.4241 z"
         id="path1166"
         style="fill:#003b63;fill-opacity:1" />
      <path
         class="cls-1"
         d="m 287.1167,298.8653 c 0,3.4316 -2.66,5.509 -6.8146,5.509 h -5.8556 v -11.0187 h 5.8556 c 4.1549,0 6.8146,2.0782 6.8146,5.5097 z m -2.5661,0 c 0,-2.267 -1.7943,-3.3688 -4.4372,-3.3688 h -3.1492 v 6.7369 h 3.1492 c 2.6429,0 4.4372,-1.1018 4.4372,-3.3681 z"
         id="path1168"
         style="fill:#003b63;fill-opacity:1" />
      <path
         class="cls-1"
         d="m 289.0246,303.2566 a 1.498,1.498 0 0 1 2.9754,0 1.5,1.5 0 0 1 -2.9754,0 z"
         id="path1170"
         style="fill:#003b63;fill-opacity:1" />
      <path
         class="cls-2"
         d="m 222.4142,45.89 68.0877,105.5367 a 4.0306,4.0306 0 0 1 -3.3991,6.1967 h -37.3513 a 5.6429,5.6429 0 0 1 -4.7588,-2.61 l -47.1,-72.6033 a 3.2246,3.2246 0 0 1 -0.002,-3.4618 l 20.997,-33.0541 a 2.0906,2.0906 0 0 1 3.527,-0.0038 z"
         id="path1172" />
      <path
         class="cls-1"
         d="m 92.1262,18.62 a 4.0305,4.0305 0 0 0 -6.7981,0 l -84.69,132.8068 a 4.0306,4.0306 0 0 0 3.399,6.1967 h 37.3517 a 5.6432,5.6432 0 0 0 4.7586,-2.61 l 40.0006,-62.68 a 3.0584,3.0584 0 0 1 5.1583,0 l 12.1643,19.0886 a 2.0907,2.0907 0 0 0 3.5254,0.001 L 128.0424,78.45 a 3.2245,3.2245 0 0 0 0.001,-3.4677 z"
         id="path1174"
         style="fill:#003b63;fill-opacity:1" />
      <path
         class="cls-2"
         d="M 93.2149,151.4268 187.56,1.8645 a 4.03,4.03 0 0 1 6.798,0 l 19.32,30.3172 a 3.2246,3.2246 0 0 1 0.003,3.4618 l -74.9567,119.37 a 5.6427,5.6427 0 0 1 -4.7587,2.6105 h -37.351 a 4.0307,4.0307 0 0 1 -3.3993,-6.1972 z"
         id="path1176" />
      <path
         class="cls-1"
         d="M 75.73,279.734 47.252,246.2311 h -18.77 v 32.1394 a 2.1054,2.1054 0 0 1 -2.1054,2.1054 H 2.1054 A 2.1054,2.1054 0 0 1 0,278.3705 V 176.46 a 2.1054,2.1054 0 0 1 2.1054,-2.1054 H 59.18 c 26.0387,0 46.2588,12.5908 46.2588,35.8655 0,17.02 -10.7653,28.8831 -26.766,33.538 l 29.1038,33.2251 a 2.1054,2.1054 0 0 1 -1.5837,3.4927 H 77.3339 A 2.1051,2.1051 0 0 1 75.73,279.734 Z M 56.9973,224.7019 c 10.6194,0 18.3291,-3.3821 18.3291,-13.9 0,-10.5179 -7.71,-13.9 -18.3291,-13.9 H 28.3358 v 27.8 z"
         id="path1178"
         style="fill:#003b63;fill-opacity:1" />
      <path
         class="cls-1"
         d="m 247.5963,176.4605 -0.0267,101.91 a 2.1055,2.1055 0 0 1 -2.1054,2.1049 h -24.219 A 2.1054,2.1054 0 0 1 219.14,278.37 l 0.027,-67.2118 -35.041,47.552 h -1.4545 l -35.04,-47.552 -0.027,67.2135 a 2.1054,2.1054 0 0 1 -2.1054,2.1046 H 122.15 a 2.1054,2.1054 0 0 1 -2.1054,-2.106 l 0.0268,-101.91 a 2.1054,2.1054 0 0 1 2.1054,-2.1048 h 28.1405 a 2.1053,2.1053 0 0 1 1.7242,0.8971 l 32.0839,45.7821 32.375,-45.7893 a 2.1054,2.1054 0 0 1 1.7191,-0.89 h 27.271 a 2.1054,2.1054 0 0 1 2.1058,2.1051 z"
         id="path1180"
         style="fill:#003b63;fill-opacity:1" />
      <path
         class="cls-1"
         d="m 262.5372,278.37 0.0268,-101.91 a 2.1054,2.1054 0 0 1 2.1054,-2.1048 h 24.3651 a 2.1054,2.1054 0 0 1 2.1054,2.1059 l -0.0267,101.91 a 2.1055,2.1055 0 0 1 -2.1054,2.1049 h -24.3652 a 2.1055,2.1055 0 0 1 -2.1054,-2.106 z"
         id="path1182"
         style="fill:#003b63;fill-opacity:1" />
    </g>
  </g>
</svg>
