<?xml version="1.0" encoding="UTF-8" standalone="no"?>
<svg
   viewBox="0 0 291.12675 157.62439"
   version="1.1"
   id="svg906"
   sodipodi:docname="logo_mountains_bg_white.svg"
   inkscape:version="1.2.2 (b0a8486541, 2022-12-01)"
   width="291.12674"
   height="157.62439"
   xmlns:inkscape="http://www.inkscape.org/namespaces/inkscape"
   xmlns:sodipodi="http://sodipodi.sourceforge.net/DTD/sodipodi-0.dtd"
   xmlns="http://www.w3.org/2000/svg"
   xmlns:svg="http://www.w3.org/2000/svg">
  <sodipodi:namedview
     id="namedview908"
     pagecolor="#ffffff"
     bordercolor="#666666"
     borderopacity="1.0"
     inkscape:pageshadow="2"
     inkscape:pageopacity="0.0"
     inkscape:pagecheckerboard="true"
     showgrid="false"
     inkscape:zoom="1.4511924"
     inkscape:cx="224.64285"
     inkscape:cy="186.74298"
     inkscape:window-width="2560"
     inkscape:window-height="1371"
     inkscape:window-x="0"
     inkscape:window-y="32"
     inkscape:window-maximized="1"
     inkscape:current-layer="Layer_1-2"
     inkscape:showpageshadow="2"
     inkscape:deskcolor="#d1d1d1" />
  <defs
     id="defs896">
    <style
       id="style894">.cls-1{fill:#44cfcb;}.cls-2{fill:#003a63;}</style>
  </defs>
  <g
     id="Layer_2"
     data-name="Layer 2"
     transform="translate(-0.00658034,3.9053395e-4)">
    <g
       id="Layer_1-2"
       data-name="Layer 1">
      <path
         class="cls-1"
         d="m 222.4142,45.89 68.0876,105.5366 a 4.0306,4.0306 0 0 1 -3.399,6.1967 h -37.3513 a 5.6428,5.6428 0 0 1 -4.7588,-2.61 l -47.1,-72.6033 a 3.2246,3.2246 0 0 1 -0.002,-3.4618 l 20.9969,-33.0541 a 2.0907,2.0907 0 0 1 3.5271,-0.0038 z"
         id="path898" />
      <path
         class="cls-2"
         d="m 92.1262,18.62 a 4.0305,4.0305 0 0 0 -6.7981,0 l -84.69,132.8068 a 4.0306,4.0306 0 0 0 3.399,6.1967 h 37.3517 a 5.6432,5.6432 0 0 0 4.7586,-2.61 l 40.0006,-62.68 a 3.0584,3.0584 0 0 1 5.1583,0 l 12.1643,19.0886 a 2.0907,2.0907 0 0 0 3.5254,0.001 L 128.0424,78.45 a 3.2245,3.2245 0 0 0 0.001,-3.4677 z"
         id="path900" />
      <path
         class="cls-1"
         d="M 93.2149,151.4268 187.56,1.8645 a 4.03,4.03 0 0 1 6.798,0 l 19.32,30.3172 a 3.2246,3.2246 0 0 1 0.003,3.4618 l -74.9567,119.37 a 5.6427,5.6427 0 0 1 -4.7587,2.6105 h -37.351 a 4.0307,4.0307 0 0 1 -3.3993,-6.1972 z"
         id="path902" />
    </g>
  </g>
</svg>
