<?xml version="1.0" standalone="no"?>
<!DOCTYPE svg PUBLIC "-//W3C//DTD SVG 20010904//EN"
 "http://www.w3.org/TR/2001/REC-SVG-20010904/DTD/svg10.dtd">
<svg version="1.0" xmlns="http://www.w3.org/2000/svg"
 width="800.000000pt" height="800.000000pt" viewBox="0 0 800.000000 800.000000"
 preserveAspectRatio="xMidYMid meet">
<metadata>
Created by potrace 1.14, written by Peter Selinger 2001-2017
</metadata>
<g transform="translate(0.000000,800.000000) scale(0.100000,-0.100000)"
fill="#000000" stroke="none">
<path d="M5096 6118 c-13 -13 -556 -867 -1206 -1898 -866 -1373 -1184 -1885
-1187 -1912 -5 -31 -1 -42 25 -68 l30 -30 509 0 c478 0 510 1 538 19 43 26
1917 3011 1923 3061 3 31 -23 76 -238 415 -133 209 -255 392 -271 408 -37 34
-87 36 -123 5z"/>
<path d="M2564 5720 c-12 -5 -33 -24 -47 -42 -14 -18 -499 -775 -1078 -1683
-960 -1505 -1053 -1654 -1053 -1692 -1 -34 5 -48 27 -70 l27 -28 514 0 513 0
32 25 c19 15 223 326 522 795 270 424 502 784 515 802 13 17 33 35 45 38 49
16 70 -9 234 -266 87 -138 167 -255 177 -260 10 -6 27 -7 37 -4 21 6 562 846
569 882 2 13 -4 37 -15 55 -84 142 -891 1399 -912 1420 -29 30 -74 42 -107 28z"/>
<path d="M5863 4998 c-19 -22 -507 -788 -533 -837 -6 -13 -10 -33 -8 -45 2
-11 274 -437 604 -945 424 -655 608 -930 629 -943 28 -17 63 -18 538 -18 l508
0 24 24 c33 33 41 71 22 110 -18 38 -1692 2634 -1715 2659 -21 23 -44 21 -69
-5z"/>
</g>
</svg>
